# xmcd
# 
# Track frame offsets:
#     150
#     15937
#     34927
#     52650
#     76497
#     93325
#     116135
#     139955
#     165202
#     188400
#     212937
#     237775
#     264177
#     280210
#     301980
#     327355
# 
# Disc length: 4724
# 
# Revision: 3
# Processed by: cddbd v1.5.2PL0 Copyright (c) Steve Scherf et al.
# Submitted via: fre:ac v1.0.17
# 
DISCID=c9127210
DTITLE=SAWADA SHOHKO - History - Yasashiku nareru DISC
DYEAR=1998
DGENRE=Pop
TTITLE0=Ame yo nagashite
TTITLE1=Zion
TTITLE2=Ochiba no heya
TTITLE3=Seishunno hikari to kage
TTITLE4=Namida ha tsubasa ni
TTITLE5=Seishun epilogue
TTITLE6=Nagareru kisetsu no nakade
TTITLE7=Omoide no orgel
TTITLE8=Anata kara F.O.
TTITLE9=Ai wo kudasai
TTITLE10=Shohnen to dolphine
TTITLE11=In My Heart
TTITLE12=Massugu ni ... ai
TTITLE13=Yakusoku
TTITLE14=Respect
TTITLE15=Furimukeba itsumo anata ga ita
EXTD=
EXTT0=
EXTT1=
EXTT2=
EXTT3=
EXTT4=
EXTT5=
EXTT6=
EXTT7=
EXTT8=
EXTT9=
EXTT10=
EXTT11=
EXTT12=
EXTT13=
EXTT14=
EXTT15=
PLAYORDER=
